<mxfile host="Electron" modified="2025-05-25T06:20:26.040Z" agent="Mozilla/5.0 (Macintosh; Intel Mac OS X 10_15_7) AppleWebKit/537.36 (KHTML, like Gecko) draw.io/22.1.2 Chrome/114.0.5735.289 Electron/25.9.4 Safari/537.36" etag="JsPgmdKkhJaZIOWlfklA" version="22.1.2" type="device">
  <diagram name="Page-1" id="bkCLvgNkWI5AsoDrtYe0">
    <mxGraphModel dx="1238" dy="888" grid="1" gridSize="10" guides="1" tooltips="1" connect="1" arrows="1" fold="1" page="1" pageScale="1" pageWidth="850" pageHeight="1100" math="0" shadow="0">
      <root>
        <mxCell id="0" />
        <mxCell id="1" parent="0" />
        <mxCell id="Bdaw_do74sNchDtbHwIJ-12" style="edgeStyle=orthogonalEdgeStyle;rounded=0;orthogonalLoop=1;jettySize=auto;html=1;exitX=0.5;exitY=1;exitDx=0;exitDy=0;entryX=0.5;entryY=0;entryDx=0;entryDy=0;dashed=1;fontSize=14;fontStyle=1" edge="1" parent="1" source="Bdaw_do74sNchDtbHwIJ-1" target="Bdaw_do74sNchDtbHwIJ-2">
          <mxGeometry relative="1" as="geometry" />
        </mxCell>
        <mxCell id="Bdaw_do74sNchDtbHwIJ-1" value="cosine-similarity.py (pytorch)" style="rounded=0;whiteSpace=wrap;html=1;fontSize=14;fontStyle=1" vertex="1" parent="1">
          <mxGeometry x="580" y="140" width="160" height="60" as="geometry" />
        </mxCell>
        <mxCell id="Bdaw_do74sNchDtbHwIJ-13" style="edgeStyle=orthogonalEdgeStyle;rounded=0;orthogonalLoop=1;jettySize=auto;html=1;exitX=0.5;exitY=1;exitDx=0;exitDy=0;entryX=0.5;entryY=0;entryDx=0;entryDy=0;dashed=1;fontSize=14;fontStyle=1" edge="1" parent="1" source="Bdaw_do74sNchDtbHwIJ-2" target="Bdaw_do74sNchDtbHwIJ-3">
          <mxGeometry relative="1" as="geometry" />
        </mxCell>
        <mxCell id="Bdaw_do74sNchDtbHwIJ-2" value="&lt;div style=&quot;font-size: 14px;&quot;&gt;CoreML&lt;/div&gt;&lt;div style=&quot;font-size: 14px;&quot;&gt;Model convert &amp;amp; compile&lt;/div&gt;" style="shape=process;whiteSpace=wrap;html=1;backgroundOutline=1;fontSize=14;fontStyle=1" vertex="1" parent="1">
          <mxGeometry x="580" y="240" width="160" height="60" as="geometry" />
        </mxCell>
        <mxCell id="Bdaw_do74sNchDtbHwIJ-24" style="edgeStyle=orthogonalEdgeStyle;rounded=0;orthogonalLoop=1;jettySize=auto;html=1;exitX=0.5;exitY=1;exitDx=0;exitDy=0;fontSize=14;fontStyle=1" edge="1" parent="1" source="Bdaw_do74sNchDtbHwIJ-3">
          <mxGeometry relative="1" as="geometry">
            <mxPoint x="780" y="520" as="targetPoint" />
          </mxGeometry>
        </mxCell>
        <mxCell id="Bdaw_do74sNchDtbHwIJ-36" value="&lt;font style=&quot;font-size: 14px;&quot;&gt;&lt;b&gt;coreml package path&lt;/b&gt;&lt;/font&gt;" style="edgeLabel;html=1;align=center;verticalAlign=middle;resizable=0;points=[];" vertex="1" connectable="0" parent="Bdaw_do74sNchDtbHwIJ-24">
          <mxGeometry x="-0.7337" y="-2" relative="1" as="geometry">
            <mxPoint as="offset" />
          </mxGeometry>
        </mxCell>
        <mxCell id="Bdaw_do74sNchDtbHwIJ-3" value="&lt;div style=&quot;border-color: var(--border-color); font-size: 14px;&quot;&gt;cosine-similarity.mlmodelc&lt;/div&gt;&lt;div style=&quot;border-color: var(--border-color); font-size: 14px;&quot;&gt;(coreml artefact)&lt;/div&gt;" style="rounded=0;whiteSpace=wrap;html=1;fontSize=14;fontStyle=1" vertex="1" parent="1">
          <mxGeometry x="580" y="360" width="160" height="60" as="geometry" />
        </mxCell>
        <mxCell id="Bdaw_do74sNchDtbHwIJ-25" style="edgeStyle=orthogonalEdgeStyle;rounded=0;orthogonalLoop=1;jettySize=auto;html=1;exitX=0.5;exitY=1;exitDx=0;exitDy=0;entryX=0.5;entryY=0;entryDx=0;entryDy=0;fontSize=14;fontStyle=1" edge="1" parent="1" source="Bdaw_do74sNchDtbHwIJ-7" target="Bdaw_do74sNchDtbHwIJ-11">
          <mxGeometry relative="1" as="geometry" />
        </mxCell>
        <mxCell id="Bdaw_do74sNchDtbHwIJ-39" value="CosineSim Package, Data" style="edgeLabel;html=1;align=center;verticalAlign=middle;resizable=0;points=[];fontSize=14;fontStyle=1" vertex="1" connectable="0" parent="Bdaw_do74sNchDtbHwIJ-25">
          <mxGeometry x="-0.3867" relative="1" as="geometry">
            <mxPoint y="4" as="offset" />
          </mxGeometry>
        </mxCell>
        <mxCell id="Bdaw_do74sNchDtbHwIJ-7" value="NpuAPI.swift &lt;br style=&quot;font-size: 14px;&quot;&gt;(lib-npu_accelerator)" style="rounded=0;whiteSpace=wrap;html=1;fontSize=14;fontStyle=1" vertex="1" parent="1">
          <mxGeometry x="700" y="520" width="160" height="60" as="geometry" />
        </mxCell>
        <mxCell id="Bdaw_do74sNchDtbHwIJ-22" style="edgeStyle=orthogonalEdgeStyle;rounded=0;orthogonalLoop=1;jettySize=auto;html=1;exitX=0.5;exitY=1;exitDx=0;exitDy=0;entryX=0.5;entryY=0;entryDx=0;entryDy=0;fontSize=14;fontStyle=1" edge="1" parent="1" source="Bdaw_do74sNchDtbHwIJ-9" target="Bdaw_do74sNchDtbHwIJ-10">
          <mxGeometry relative="1" as="geometry" />
        </mxCell>
        <mxCell id="Bdaw_do74sNchDtbHwIJ-34" value="mmap file read" style="edgeLabel;html=1;align=center;verticalAlign=middle;resizable=0;points=[];fontStyle=1;fontSize=14;" vertex="1" connectable="0" parent="Bdaw_do74sNchDtbHwIJ-22">
          <mxGeometry x="-0.2941" y="-2" relative="1" as="geometry">
            <mxPoint as="offset" />
          </mxGeometry>
        </mxCell>
        <mxCell id="Bdaw_do74sNchDtbHwIJ-9" value="&lt;div style=&quot;border-color: var(--border-color); font-size: 14px;&quot;&gt;Directory containing&lt;/div&gt;&lt;div style=&quot;border-color: var(--border-color); font-size: 14px;&quot;&gt;&lt;span style=&quot;font-size: 14px;&quot;&gt;.vectordump&lt;/span&gt; files&lt;/div&gt;" style="rounded=0;whiteSpace=wrap;html=1;fontSize=14;fontStyle=1" vertex="1" parent="1">
          <mxGeometry x="820" y="240" width="160" height="60" as="geometry" />
        </mxCell>
        <mxCell id="Bdaw_do74sNchDtbHwIJ-23" style="edgeStyle=orthogonalEdgeStyle;rounded=0;orthogonalLoop=1;jettySize=auto;html=1;exitX=0.5;exitY=1;exitDx=0;exitDy=0;fontSize=14;fontStyle=1" edge="1" parent="1" source="Bdaw_do74sNchDtbHwIJ-10" target="Bdaw_do74sNchDtbHwIJ-7">
          <mxGeometry relative="1" as="geometry" />
        </mxCell>
        <mxCell id="Bdaw_do74sNchDtbHwIJ-35" value="&lt;span style=&quot;font-size: 14px;&quot;&gt;&lt;font style=&quot;font-size: 14px;&quot;&gt;Vecdump data pointers&lt;/font&gt;&lt;/span&gt;" style="edgeLabel;html=1;align=center;verticalAlign=middle;resizable=0;points=[];fontSize=14;fontStyle=1" vertex="1" connectable="0" parent="Bdaw_do74sNchDtbHwIJ-23">
          <mxGeometry x="-0.7112" y="-2" relative="1" as="geometry">
            <mxPoint as="offset" />
          </mxGeometry>
        </mxCell>
        <mxCell id="Bdaw_do74sNchDtbHwIJ-10" value="&lt;div style=&quot;font-size: 14px;&quot;&gt;VecDumpReader&lt;/div&gt;&lt;div style=&quot;font-size: 14px;&quot;&gt;(lib-npu_accelerator)&lt;br style=&quot;font-size: 14px;&quot;&gt;&lt;/div&gt;" style="rounded=0;whiteSpace=wrap;html=1;fontSize=14;fontStyle=1" vertex="1" parent="1">
          <mxGeometry x="820" y="360" width="160" height="60" as="geometry" />
        </mxCell>
        <mxCell id="Bdaw_do74sNchDtbHwIJ-37" style="edgeStyle=orthogonalEdgeStyle;rounded=0;orthogonalLoop=1;jettySize=auto;html=1;exitX=0.5;exitY=1;exitDx=0;exitDy=0;entryX=1;entryY=0.5;entryDx=0;entryDy=0;" edge="1" parent="1" source="Bdaw_do74sNchDtbHwIJ-11" target="Bdaw_do74sNchDtbHwIJ-7">
          <mxGeometry relative="1" as="geometry">
            <Array as="points">
              <mxPoint x="780" y="710" />
              <mxPoint x="930" y="710" />
              <mxPoint x="930" y="550" />
            </Array>
          </mxGeometry>
        </mxCell>
        <mxCell id="Bdaw_do74sNchDtbHwIJ-38" value="Result" style="edgeLabel;html=1;align=center;verticalAlign=middle;resizable=0;points=[];fontSize=14;fontStyle=1" vertex="1" connectable="0" parent="Bdaw_do74sNchDtbHwIJ-37">
          <mxGeometry x="0.2789" y="-1" relative="1" as="geometry">
            <mxPoint as="offset" />
          </mxGeometry>
        </mxCell>
        <mxCell id="Bdaw_do74sNchDtbHwIJ-11" value="&lt;div style=&quot;font-size: 14px;&quot;&gt;Apple Neural Engine&lt;/div&gt;" style="rounded=0;whiteSpace=wrap;html=1;fontSize=14;fontStyle=1" vertex="1" parent="1">
          <mxGeometry x="700" y="630" width="160" height="60" as="geometry" />
        </mxCell>
        <mxCell id="Bdaw_do74sNchDtbHwIJ-29" style="edgeStyle=orthogonalEdgeStyle;rounded=0;orthogonalLoop=1;jettySize=auto;html=1;exitX=0.5;exitY=1;exitDx=0;exitDy=0;fontSize=14;fontStyle=1" edge="1" parent="1" source="Bdaw_do74sNchDtbHwIJ-26" target="Bdaw_do74sNchDtbHwIJ-9">
          <mxGeometry relative="1" as="geometry" />
        </mxCell>
        <mxCell id="Bdaw_do74sNchDtbHwIJ-26" value="&lt;div style=&quot;font-size: 14px;&quot;&gt;Embed files&lt;/div&gt;" style="shape=process;whiteSpace=wrap;html=1;backgroundOutline=1;fontSize=14;fontStyle=1" vertex="1" parent="1">
          <mxGeometry x="820" y="160" width="160" height="50" as="geometry" />
        </mxCell>
        <mxCell id="Bdaw_do74sNchDtbHwIJ-28" style="edgeStyle=orthogonalEdgeStyle;rounded=0;orthogonalLoop=1;jettySize=auto;html=1;exitX=0.5;exitY=1;exitDx=0;exitDy=0;entryX=0.5;entryY=0;entryDx=0;entryDy=0;fontSize=14;fontStyle=1" edge="1" parent="1" source="Bdaw_do74sNchDtbHwIJ-27" target="Bdaw_do74sNchDtbHwIJ-26">
          <mxGeometry relative="1" as="geometry" />
        </mxCell>
        <mxCell id="Bdaw_do74sNchDtbHwIJ-27" value="&lt;div style=&quot;border-color: var(--border-color); font-size: 14px;&quot;&gt;Corpus Directory containing&lt;/div&gt;&lt;div style=&quot;border-color: var(--border-color); font-size: 14px;&quot;&gt;&lt;span style=&quot;font-size: 14px;&quot;&gt;.pdf&lt;/span&gt; files&lt;/div&gt;" style="rounded=0;whiteSpace=wrap;html=1;fontSize=14;fontStyle=1" vertex="1" parent="1">
          <mxGeometry x="820" y="70" width="160" height="60" as="geometry" />
        </mxCell>
        <mxCell id="Bdaw_do74sNchDtbHwIJ-32" value="" style="group;fontSize=14;fontStyle=1" vertex="1" connectable="0" parent="1">
          <mxGeometry x="360" y="60" width="155" height="180" as="geometry" />
        </mxCell>
        <mxCell id="Bdaw_do74sNchDtbHwIJ-21" value="" style="group;fontSize=14;fontStyle=1" vertex="1" connectable="0" parent="Bdaw_do74sNchDtbHwIJ-32">
          <mxGeometry width="155" height="180" as="geometry" />
        </mxCell>
        <mxCell id="Bdaw_do74sNchDtbHwIJ-15" value="" style="rounded=0;whiteSpace=wrap;html=1;fontSize=14;fontStyle=1" vertex="1" parent="Bdaw_do74sNchDtbHwIJ-21">
          <mxGeometry y="6" width="130" height="174" as="geometry" />
        </mxCell>
        <mxCell id="Bdaw_do74sNchDtbHwIJ-16" value="" style="endArrow=classic;html=1;rounded=0;dashed=1;fontSize=14;fontStyle=1" edge="1" parent="Bdaw_do74sNchDtbHwIJ-21">
          <mxGeometry width="50" height="50" relative="1" as="geometry">
            <mxPoint x="10" y="55.68000000000001" as="sourcePoint" />
            <mxPoint x="60" y="55.68000000000001" as="targetPoint" />
          </mxGeometry>
        </mxCell>
        <mxCell id="Bdaw_do74sNchDtbHwIJ-17" value="Compile time action" style="text;html=1;strokeColor=none;fillColor=none;align=left;verticalAlign=middle;whiteSpace=wrap;rounded=0;fontSize=14;fontStyle=1" vertex="1" parent="Bdaw_do74sNchDtbHwIJ-21">
          <mxGeometry x="65" y="41" width="70" height="30" as="geometry" />
        </mxCell>
        <mxCell id="Bdaw_do74sNchDtbHwIJ-18" value="" style="endArrow=classic;html=1;rounded=0;fontSize=14;fontStyle=1" edge="1" parent="Bdaw_do74sNchDtbHwIJ-21">
          <mxGeometry width="50" height="50" relative="1" as="geometry">
            <mxPoint x="9" y="95.68" as="sourcePoint" />
            <mxPoint x="59" y="95.68" as="targetPoint" />
          </mxGeometry>
        </mxCell>
        <mxCell id="Bdaw_do74sNchDtbHwIJ-19" value="Runtime action" style="text;html=1;strokeColor=none;fillColor=none;align=left;verticalAlign=middle;whiteSpace=wrap;rounded=0;fontSize=14;fontStyle=1" vertex="1" parent="Bdaw_do74sNchDtbHwIJ-21">
          <mxGeometry x="65" y="86" width="70" height="30" as="geometry" />
        </mxCell>
        <mxCell id="Bdaw_do74sNchDtbHwIJ-20" value="Legend" style="text;html=1;strokeColor=none;fillColor=none;align=center;verticalAlign=middle;whiteSpace=wrap;rounded=0;fontSize=14;fontStyle=1" vertex="1" parent="Bdaw_do74sNchDtbHwIJ-21">
          <mxGeometry x="35" width="60" height="30" as="geometry" />
        </mxCell>
        <mxCell id="Bdaw_do74sNchDtbHwIJ-30" value="" style="shape=process;whiteSpace=wrap;html=1;backgroundOutline=1;fontSize=14;fontStyle=1" vertex="1" parent="Bdaw_do74sNchDtbHwIJ-21">
          <mxGeometry x="10" y="130" width="52" height="26" as="geometry" />
        </mxCell>
        <mxCell id="Bdaw_do74sNchDtbHwIJ-31" value="Process" style="text;html=1;strokeColor=none;fillColor=none;align=left;verticalAlign=middle;whiteSpace=wrap;rounded=0;fontSize=14;fontStyle=1" vertex="1" parent="Bdaw_do74sNchDtbHwIJ-32">
          <mxGeometry x="68" y="128" width="70" height="30" as="geometry" />
        </mxCell>
      </root>
    </mxGraphModel>
  </diagram>
</mxfile>
